<svg xmlns="http://www.w3.org/2000/svg" width="48" height="48" fill="currentColor" viewBox="0 0 900 900"><g transform="translate(58, 0)"><path fill-rule="evenodd" d="m149 2 5 1 9 4 16 8 15 8 8 4 3 16v9h-2v-2h-2v-2l-4-2-2-1v-2l-4-2-15-13-5-4v-2h-2v-2l-4-2-12-11Zm322 12 2 3 5 26 7 37v7l-15 28-5 8-13 10-11 8h-3l5-15h2l1-7 9-24 6-13 4-35-2 5-7 20-10 27-6 16-5 11-5 14-4-2-4-3v-2l-3-1v-2h-2v-2l-4-2-5-5 3-10 7-14 8-16 10-19 12-21 9-10 9-11ZM211 32l9 4 21 11 2 2 2 10 3 23v6l-8-6-8-6v-2l-4-2-14-12-3-23Zm41 21 7 3 27 14 2 2v8l2 22 1 12v10l-5-3-15-13-11-9-3-3-5-38Zm113 19 6 1 14 7 20 12 3 2-3 10-6 13-2 2-17-9-9-5-6-32Zm-68 4 16 8 11 6 3 3 9 31 6 19 3 13-8 6-4-2-11-9-13-11-9-8-1-12-2-31Zm256 7 10 2 29 8 22 6 17 5 14 4-4 4-18 7-10 5-26 11-41 9-22 5-4-1-14-9-22-15-2-2 1-4 1-2h2l2-5 3-4h2l1-3 10-4 26-9ZM337 98l5 2 16 8 16 8 15 8v3h-2v2l-11 7-20 13-4 1-8-24-4-14Zm64 30 4 1 10 9v2l4 2 4 4-1 4-11 12-11 11-7 8-16 16-17 6-9 3-2 5-10 16-11 12-1 2h-2l-2 4-20 11-11 6-19 9-5 3-10-1-17-4 6-7 8-6 11-9 11-9 13-11 8-7 3-3 6-11 5-8 4-5 5-9 10-8 15-10 17-12 12-8 22-15Zm69 1 5 2 20 14 16 11 18 13 12 8 11 8 10 7 8 6 8 20 6 16 4 8 6 16 11 27 10 25 7 16 5 13v9l-4 37-4 43-5 42-11 16-3 4-4-1-16-12-19-14-16-12-12-9-10-8-10-7-2-1v-2l-5-2-13-10-12-9-1-4 2-29 3-32 2-32 3-37 3-40v-7l-3-5-7-9v-2h-2l-8-11-14-18-10-13-8-10 1-4 12-9Zm118 14 48 2h8l9 7 13 11 14 11 15 13 8 6 4 3v2l5 2 1 3 4 2 4 3v2l-58-2-16-1-29-4-33-4-6-10-10-7-11-7-17-12-10-7v-1l34-7Z"/></g></svg>
