<svg xmlns="http://www.w3.org/2000/svg" width="784" height="900" fill="currentColor" viewBox="0 0 784 900"><path d="m149 2 5 1 9 4 16 8 15 8 8 4 3 16v9h-2v-2h-2v-2l-4-2-2-1v-2l-4-2-15-13-5-4v-2h-2v-2l-4-2-12-11ZM471 14l2 3 5 26 7 37v7l-15 28-5 8-13 10-11 8h-3l5-15h2l1-7 9-24 6-13 4-35-2 5-7 20-10 27-6 16-5 11-5 14-4-2-4-3v-2l-3-1v-2h-2v-2l-4-2-5-5 3-10 7-14 8-16 10-19 12-21 9-10 9-11ZM211 32l9 4 21 11 2 2 2 10 3 23v6l-8-6-8-6v-2l-4-2-14-12-3-23ZM252 53l7 3 27 14 2 2v8l2 22 1 12v10l-5-3-15-13-11-9-3-3-5-38ZM365 72l6 1 14 7 20 12 3 2-3 10-6 13-2 2-17-9-9-5-6-32ZM297 76l16 8 11 6 3 3 9 31 6 19 3 13-8 6-4-2-11-9-13-11-9-8-1-12-2-31ZM553 83l10 2 29 8 22 6 17 5 14 4-4 4-18 7-10 5-26 11-41 9-22 5-4-1-14-9-22-15-2-2 1-4 1-2h2l2-5 3-4h2l1-3 10-4 26-9ZM337 98l5 2 16 8 16 8 15 8v3h-2v2l-11 7-20 13-4 1-8-24-4-14ZM401 128l4 1 10 9v2l4 2 4 4-1 4-11 12-11 11-7 8-16 16-17 6-9 3-2 5-10 16-11 12-1 2h-2l-2 4-20 11-11 6-19 9-5 3-10-1-17-4 6-7 8-6 11-9 11-9 13-11 8-7 3-3 6-11 5-8 4-5 5-9 10-8 15-10 17-12 12-8 22-15ZM470 129l5 2 20 14 16 11 18 13 12 8 11 8 10 7 8 6 8 20 6 16 4 8 6 16 11 27 10 25 7 16 5 13v9l-4 37-4 43-5 42-11 16-3 4-4-1-16-12-19-14-16-12-12-9-10-8-10-7-2-1v-2l-5-2-13-10-12-9-1-4 2-29 3-32 2-32 3-37 3-40v-7l-3-5-7-9v-2h-2l-8-11-14-18-10-13-8-10 1-4 12-9ZM588 143l48 2h8l9 7 13 11 14 11 15 13 8 6 4 3v2l5 2 1 3 4 2 4 3v2l-58-2-16-1-29-4-33-4-6-10-10-7-11-7-17-12-10-7v-1l34-7Z"/><path d="M429 155h3l8 10 13 17 9 11 11 14 10 14-2 5-13 17-8 11-14 19-13 19-6 8-49 3h-10l-13-17-10-14v-2h-2l-7-11-6-8 2-5 13-16 23-6 12-18 7-9 6-7h2l1-3 8-7 5-6h2l2-4 12-12ZM589 208l13 1 47 6 10 1 42 13 5 5 8 11 8 12 6 8v2h2l7 11 8 11 10 14 11 16 5 9-9-3-23-9-11-5-29-12-24-10-13-6-30-12-22-9-5-11-12-29-4-12ZM483 236h1v11l-3 37-2 30-2 21-1 20-4 45-2 3-16 8-16 8-16 9-19 9-19 10-19 10-16 8-15 8-16 8-3 1 2-6 9-13 8-11 11-16 9-11 6-9 4-4 10-13 11-13 9-10 9-11 11-12 2-4 5-39 5-2 6-2 8-11 7-10 13-18 12-16 6-9h2l2-5ZM321 255l4 2 2 5h2l11 16 12 16 2 5h2l3 5v2l-27 11-12 5-10 4-6-1-13-7-6-9-10-18-4-9 9-6 16-8 15-8ZM615 273l9 3 20 8 12 5 19 8 13 6 13 5 5 4 9 12 12 17 15 20v2h2l7 11 5 16 6 21 6 19 9 32 6 19 1 8-7-6-78-78-8-7-27-27-8-7-15-15v-10l-13-31-10-24-3-8ZM232 276l7 1 20 4 5 5 14 26 3 5v2h-2v2l-16 10-8 5h-2v2l-16 9-5-2-13-11-1-1v-45l11-10Zm17 14-12 6v18h2v-2l4-2 3-2v-2h2v-2h2l1-14ZM285 326l6 1 9 5 2 2-1 9-3 15-8 7-2 2-8-1-19-6-10-3v-3l9-8h2v-2l8-7 5-4 5-3h2v-2ZM640 361h2l4 5 8 7 8 7v2l4 2 18 18 3 2v2l4 2 16 16 5 5 5 5 2 2 4 17 10 40 4 15 4 15-1 11-6 33-6 33-4 21-4 23-2 1-16-33-8-17-8-16-8-17-10-19-10-19-8-16-11-22-9-17v-11l4-44 3-29 2-20ZM178 397l4 2 23 23 7 8 42 42v2l4 2 7 8 5 5 14 14-1 3h-2l-2 4-2 3h-2l-2 4-9 10-1 2v20l2 34v14l-13-2-23-5-3-3-8-15-13-23-15-26-14-25-13-22-9-16-8-11-11-16-8-12-6-8v-2l40-10ZM474 410l5 2 19 14 14 10 13 10 16 12 16 12 19 14 14 10v2l3 1-1 4-10 16-8 11-5 9-10-1-45-9-26-5-61-12-27-5-45-9-28-5-5-2 5-4 16-8 29-15 15-8 17-8 19-10 21-11 16-8ZM114 418l5 5 11 16 7 10 7 11-6 7-12 11-10 9-8 7-10 9-3 1v2l-11 9-11 12-4 5-10-2-36-9-15-4 2-4 10-10 8-7 17-16 10-9 3-3h2v-2l8-7 12-11 8-7 12-11h2l2-4ZM625 479l3 2 8 16 8 16 12 23 8 16 11 22 1 3-6 26-3 15-5 20-7 31-11 47-3-1-8-15-8-16-7-22-9-30-6-21-6-18-14-50 1-4 10-15 9-13 8-12 8-11Z"/><path d="m305 495 23 4 7 1 4 1 65 13 38 7 34 7 32 6 35 7 14 3-6 7-12 11-5 5-9 9h-2l-2 4-5 4-5 5-17 17-8 7-9 9-8 7-17 16-6 5-1 2h-2v2l-11 9-4 5h-2v2l-8 7-9 9h-2v2h-2v2l-6 5-3-1-8-10-12-14-11-14v-2h-2l-2-5-3-1-11-14-14-17-4-5-15-4-25-5-15-4-3-50v-16l5-7 3-3h2l2-4 12-13ZM5 525l19 4 34 9 8 2 5 22 2 6 10 14 4 7-14 17-8 11-12 15-10 13-11 15-3 1-12-22-8-16-9-18 1-26 3-38ZM567 547h2l8 28 7 25 5 17 8 26 6 21 5 17 5 16 10 21 13 28 9 20 8 18 7 14 6 14 7 15 7 16 7 14v43H404l-4-7-17-40-1-3v-9l4-26 8-53 6-39 3-18 3-6 3-1v-2l8-7 15-14 8-8 8-7 7-7 8-7 17-16 11-11 8-7 14-14 8-7 10-10 8-7 16-16h2l1-3h2l1-3h2v-2Z"/><path d="m182 597 22 3 65 10 37 6 15 2 5 3 2 4h2l6 8v2h2l9 11 11 14 11 13 9 11 11 13 2 5-14 7-19 10-19 10-19 10-8 4-9-6-19-14-13-10-12-9-16-12-12-9-13-10-12-9-10-26-8-22-6-16ZM172 599l2 2 14 37 7 19-1 4-12 8-4 11-10 32-2 5-1 17-5 3-29 10-16 6-15 5 2-12 11-42 12-43 5-20 4-13 11-9 18-13ZM392 710h1v8l-4 27-5 30-8 54-1 4-4-2-4-3v-2l-4-2-2-4h-2l-7-8-7-7-2-1v-2h-2v-2h-2v-2l-4-2-8-16-11-26 1-4 22-12 23-12 11-6 14-7ZM164 744l4 1 10 14 8 13v2l10 1 14 2 1 1v104l-15-8-21-12-21-12-13-8-5-5-15-30-8-16-8-15-3-7v-3l20-7 12-5 13-4Z"/></svg>